<?xml version="1.0" standalone="no"?>
<!DOCTYPE svg PUBLIC "-//W3C//DTD SVG 20010904//EN"
 "http://www.w3.org/TR/2001/REC-SVG-20010904/DTD/svg10.dtd">
<svg version="1.0" xmlns="http://www.w3.org/2000/svg"
 width="512.000000pt" height="512.000000pt" viewBox="0 0 512.000000 512.000000"
 preserveAspectRatio="xMidYMid meet">
<metadata>
Created by potrace 1.11, written by Peter Selinger 2001-2013
</metadata>
<g transform="translate(0.000000,512.000000) scale(0.100000,-0.100000)"
fill="#000000" stroke="none">
<path d="M240 5019 c-72 -34 -124 -84 -160 -156 l-25 -48 0 -2265 0 -2265 25
-50 c30 -62 94 -125 157 -156 l48 -24 2265 0 2265 0 47 24 c62 30 129 96 159
157 l24 49 0 2265 0 2265 -25 50 c-34 70 -105 135 -176 162 l-59 23 -2240 0
-2240 0 -65 -31z"/>
</g>
</svg>
